HIERARCHY
ROOT Hips
{
  OFFSET 50.6394 51.7547 1.08154
  CHANNELS 6 Xposition Yposition Zposition Zrotation Xrotation Yrotation
  JOINT spine
  {
    OFFSET 0 7.80059 0.448573
    CHANNELS 3 Zrotation Xrotation Yrotation
    JOINT spine1
    {
      OFFSET 0 10.1364 0
      CHANNELS 3 Zrotation Xrotation Yrotation
      JOINT spine2
      {
        OFFSET 0 9.71251 0
        CHANNELS 3 Zrotation Xrotation Yrotation
        JOINT Neck
        {
          OFFSET 0 24.9361 1.18887
          CHANNELS 3 Zrotation Xrotation Yrotation
          JOINT Head
          {
            OFFSET 0 7.53384 0
            CHANNELS 3 Zrotation Xrotation Yrotation
            End Site
            {
              OFFSET 0 18.2361 -6.01402
            }
          }
        }
        JOINT RightShoulder
        {
          OFFSET -4.08965 10.4888 -0.569457
          CHANNELS 3 Zrotation Xrotation Yrotation
          JOINT RightArm
          {
            OFFSET 0 13.757 0
            CHANNELS 3 Zrotation Xrotation Yrotation
            JOINT RightArmRoll
            {
              OFFSET 0 6.94478 0
              CHANNELS 3 Zrotation Xrotation Yrotation
              JOINT RightForeArm
              {
                OFFSET 0 20.2277 0
                CHANNELS 3 Zrotation Xrotation Yrotation
                JOINT RightForeArmRoll
                {
                  OFFSET 0 7.79312 0
                  CHANNELS 3 Zrotation Xrotation Yrotation
                  JOINT RightHand
                  {
                    OFFSET 0 15.6391 0
                    CHANNELS 3 Zrotation Xrotation Yrotation
                    End Site
                    {
                      OFFSET 0 0 0
                    }
                  }
                }
              }
            }
          }
        }
        JOINT LeftShoulder
        {
          OFFSET 4.08965 10.4888 -0.569457
          CHANNELS 3 Zrotation Xrotation Yrotation
          JOINT LeftArm
          {
            OFFSET 0 13.757 0
            CHANNELS 3 Zrotation Xrotation Yrotation
            JOINT LeftArmRoll
            {
              OFFSET 0 6.94478 0
              CHANNELS 3 Zrotation Xrotation Yrotation
              JOINT LeftForeArm
              {
                OFFSET 0 20.2277 0
                CHANNELS 3 Zrotation Xrotation Yrotation
                JOINT LeftForeArmRoll
                {
                  OFFSET 0 7.79312 0
                  CHANNELS 3 Zrotation Xrotation Yrotation
                  JOINT LeftHand
                  {
                    OFFSET 0 15.6391 0
                    CHANNELS 3 Zrotation Xrotation Yrotation
                    End Site
                    {
                      OFFSET 0 0 0
                    }
                  }
                }
              }
            }
          }
        }
      }
    }
  }
  JOINT RightUpLeg
  {
    OFFSET -6.91416 -1.26788 -1.06358
    CHANNELS 3 Zrotation Xrotation Yrotation
    JOINT RightUpLegRoll
    {
      OFFSET 0 18.3378 0
      CHANNELS 3 Zrotation Xrotation Yrotation
      JOINT RightLeg
      {
        OFFSET 0 -22.7085 0
        CHANNELS 3 Zrotation Xrotation Yrotation
        JOINT RightLegRoll
        {
          OFFSET 0 22.7828 0
          CHANNELS 3 Zrotation Xrotation Yrotation
          JOINT RightFoot
          {
            OFFSET 0 18.9629 0
            CHANNELS 3 Zrotation Xrotation Yrotation
            JOINT RightToeBase
            {
              OFFSET 0 15.852 0
              CHANNELS 3 Zrotation Xrotation Yrotation
              End Site
              {
                OFFSET 0.00671906 7.67701 -0.884892
              }
            }
          }
        }
      }
    }
  }
  JOINT LeftUpLeg
  {
    OFFSET 6.91416 -1.26788 -1.06358
    CHANNELS 3 Zrotation Xrotation Yrotation
    JOINT LeftUpLegRoll
    {
      OFFSET 0 18.3379 0
      CHANNELS 3 Zrotation Xrotation Yrotation
      JOINT LeftLeg
      {
        OFFSET 0 22.7084 0
        CHANNELS 3 Zrotation Xrotation Yrotation
        JOINT LeftLegRoll
        {
          OFFSET 0 22.9934 0
          CHANNELS 3 Zrotation Xrotation Yrotation
          JOINT LeftFoot
          {
            OFFSET 0 18.7522 0
            CHANNELS 3 Zrotation Xrotation Yrotation
            JOINT LeftToeBase
            {
              OFFSET 0 15.852 0
              CHANNELS 3 Zrotation Xrotation Yrotation
              End Site
              {
                OFFSET -0.030112 7.677 -0.884893
              }
            }
          }
        }
      }
    }
  }
}
MOTION
Frames: 8
Frame Time: 0.00208333
45.7066 53.1658 6.11861 -7.87552 -8.72064 24.2411 1.37715 3.48895 -0.779512 2.8348 10.9682 -1.83203 2.8675 12.6118 -1.8854 14.7851 -8.54895 -5.2497 -10.2406 2.08096 -5.01909 80.2365 -5.01673 -4.36062 96.9595 30.0513 -31.5795 8.74653e-015 8.74653e-015 -1.27222e-014 15.2442 67.3423 -11.7891 -7.24351e-006 8.91949e-007 -2.99998 8.03005 -4.95103 0.697575 -41.837 -8.25681 4.65244 -136.628 19.6493 32.0378 4.62981e-006 -1.12374e-006 3.00556e-006 -13.1025 56.0151 10.7882 -1.26957e-006 -9.87567e-007 3 -8.0289 -4.95145 -0.697699 173.818 81.2931 16.452 180 7.01393e-015 178.387 -8.31159 77.7042 7.97249 2.80017e-006 -3.04261e-006 2.19968 -31.6059 78.4117 35.2311 8.13649 25.2327 -3.48774 159.165 86.9982 26.1044 4.54188e-006 -4.6773e-006 -1.31707 131.586 -79.355 125.233 1.74305e-006 1.7099e-006 -1.90302 15.8173 68.1752 -19.6493 -8.13647 25.2327 3.48386 
45.7302 53.1638 6.13836 -7.94525 -8.72487 24.2554 1.38255 3.48996 -0.783231 2.84695 10.969 -1.84069 2.8798 12.6125 -1.89428 14.9273 -8.62744 -5.23516 -10.3013 2.05658 -5.0114 80.347 -4.99599 -4.35857 96.763 30.0319 -31.5627 6.36111e-015 1.59028e-015 -3.18055e-015 15.1897 67.4706 -11.7849 -7.24351e-006 8.91949e-007 -2.99998 8.03005 -4.95103 0.697575 -41.765 -8.28022 4.67027 -136.692 19.637 32.0979 4.62981e-006 -1.12374e-006 3.00556e-006 -13.1159 56.0007 10.794 -1.26957e-006 -9.87567e-007 3 -8.0289 -4.95145 -0.697699 173.508 81.2795 16.8112 180 7.01393e-015 178.389 -8.17759 77.7423 7.80338 2.80017e-006 -3.04261e-006 2.19731 -31.6154 78.4042 35.2204 8.13649 25.2327 -3.48774 158.539 87.0031 26.7782 4.54188e-006 -4.6773e-006 -1.31629 131.539 -79.3402 125.168 1.74305e-006 1.7099e-006 -1.90407 15.8208 68.183 -19.6553 -8.13647 25.2327 3.48387 
45.7382 53.1682 6.13715 -8.01514 -8.72892 24.2695 1.38809 3.491 -0.786861 2.85944 10.9697 -1.8492 2.89245 12.6133 -1.90303 15.069 -8.70415 -5.22039 -10.3628 2.02959 -5.00385 80.4591 -4.97484 -4.35647 96.5629 30.0125 -31.5463 9.54166e-015 7.95139e-015 -6.36111e-015 15.1352 67.6003 -11.7811 -7.24351e-006 8.91949e-007 -2.99998 8.03005 -4.95103 0.697575 -41.6922 -8.30323 4.68778 -136.757 19.6253 32.1582 4.62981e-006 -1.12374e-006 3.00556e-006 -13.1292 55.9853 10.7995 -1.26957e-006 -9.87567e-007 3 -8.0289 -4.95145 -0.697699 173.195 81.2654 17.1734 180 7.01394e-015 178.39 -8.042 77.7803 7.63274 2.80017e-006 -3.04261e-006 2.1952 -31.6274 78.3967 35.2105 8.13649 25.2327 -3.48774 157.905 87.008 27.4593 4.54188e-006 -4.6773e-006 -1.31551 131.496 -79.3248 125.107 1.74305e-006 1.7099e-006 -1.9052 15.8249 68.1914 -19.6617 -8.13647 25.2327 3.48387 
45.7422 53.2001 6.11206 -8.08518 -8.73257 24.2832 1.39375 3.49201 -0.790384 2.87222 10.9703 -1.85752 2.90538 12.6139 -1.9116 15.2103 -8.77922 -5.2054 -10.4254 2.00054 -4.99639 80.5722 -4.95336 -4.35433 96.3601 29.9932 -31.5301 1.35174e-014 7.95139e-015 -0 15.0808 67.7308 -11.7774 -7.24351e-006 8.91949e-007 -2.99998 8.03005 -4.95103 0.697575 -41.6185 -8.32582 4.70495 -136.821 19.6139 32.2184 4.62981e-006 -1.12374e-006 3.00556e-006 -13.1424 55.9687 10.8046 -1.26957e-006 -9.87567e-007 3 -8.0289 -4.95145 -0.697699 172.88 81.251 17.5373 180 7.01394e-015 178.391 -7.90485 77.8184 7.46056 2.80017e-006 -3.04261e-006 2.19329 -31.6415 78.3893 35.2015 8.13649 25.2327 -3.48774 157.265 87.013 28.1459 4.54188e-006 -4.6773e-006 -1.31474 131.456 -79.309 125.05 1.74305e-006 1.7099e-006 -1.9064 15.8297 68.2004 -19.6686 -8.13647 25.2327 3.48388 
45.7566 53.2105 6.11582 -8.15534 -8.73562 24.2961 1.39951 3.49291 -0.793782 2.88522 10.9707 -1.86561 2.91853 12.6142 -1.91993 15.3512 -8.85282 -5.19016 -10.4893 1.97 -4.989 80.6863 -4.93163 -4.35218 96.1555 29.9739 -31.5136 1.59028e-015 -4.77083e-015 -2.22639e-014 15.0264 67.8611 -11.7736 -7.24351e-006 8.91949e-007 -2.99998 8.03005 -4.95103 0.697575 -41.5441 -8.34796 4.72176 -136.886 19.603 32.2784 4.62981e-006 -1.12374e-006 3.00556e-006 -13.1552 55.951 10.8091 -1.26957e-006 -9.87567e-007 3 -8.0289 -4.95145 -0.697699 172.564 81.2366 17.9014 180 7.01395e-015 178.392 -7.76614 77.8563 7.28685 2.80017e-006 -3.04261e-006 2.19153 -31.6571 78.3819 35.1932 8.13649 25.2327 -3.48774 156.62 87.0181 28.837 4.54188e-006 -4.6773e-006 -1.31399 131.419 -79.2931 124.996 1.74305e-006 1.7099e-006 -1.90767 15.8353 68.2096 -19.6756 -8.13647 25.2327 3.48389 
45.7609 53.2329 6.08477 -8.22561 -8.73784 24.3081 1.40536 3.49365 -0.797035 2.89839 10.9708 -1.87343 2.93184 12.6142 -1.92799 15.4919 -8.92508 -5.17466 -10.555 1.9385 -4.98164 80.8008 -4.90971 -4.35002 95.95 29.9546 -31.4967 1.51076e-014 9.54166e-015 -9.54166e-015 14.9721 67.9904 -11.7695 -7.24351e-006 8.91949e-007 -2.99998 8.03005 -4.95103 0.697575 -41.469 -8.36964 4.73819 -136.952 19.5923 32.3377 4.62981e-006 -1.12374e-006 3.00556e-006 -13.1675 55.9322 10.8131 -1.26957e-006 -9.87567e-007 3 -8.0289 -4.95145 -0.697699 172.249 81.2223 18.2645 180 7.01395e-015 178.393 -7.62587 77.8942 7.11162 2.80017e-006 -3.04261e-006 2.18988 -31.6737 78.3746 35.1853 8.13649 25.2327 -3.48774 155.971 87.0235 29.5314 4.54188e-006 -4.6773e-006 -1.31327 131.384 -79.2775 124.944 1.74305e-006 1.7099e-006 -1.90903 15.8418 68.2189 -19.6828 -8.13647 25.2327 3.48389 
45.7754 53.2441 6.08589 -8.29596 -8.73903 24.3188 1.41129 3.49414 -0.800127 2.91167 10.9704 -1.88092 2.94526 12.6138 -1.93573 15.6323 -8.99615 -5.15889 -10.6227 1.90662 -4.97429 80.9155 -4.8877 -4.34788 95.7447 29.9354 -31.4789 6.36111e-015 0 -3.18055e-015 14.918 68.1178 -11.7649 -7.24351e-006 8.91949e-007 -2.99998 8.03005 -4.95103 0.697575 -41.3934 -8.39082 4.75421 -137.018 19.5817 32.396 4.62981e-006 -1.12374e-006 3.00556e-006 -13.1791 55.9121 10.8163 -1.26957e-006 -9.87567e-007 3 -8.0289 -4.95145 -0.697699 171.935 81.2083 18.6251 180 7.01395e-015 178.394 -7.48407 77.932 6.93486 2.80017e-006 -3.04261e-006 2.18828 -31.691 78.3673 35.1777 8.13649 25.2327 -3.48774 155.319 87.0293 30.2279 4.54188e-006 -4.6773e-006 -1.31259 131.348 -79.2625 124.892 1.74305e-006 1.7099e-006 -1.91046 15.8494 68.2282 -19.69 -8.13647 25.2327 3.4839 
45.8052 53.2461 6.10019 -8.36638 -8.73898 24.3281 1.41729 3.49432 -0.803039 2.92501 10.9694 -1.88804 2.95873 12.6129 -1.94311 15.7725 -9.06617 -5.14284 -10.6927 1.8749 -4.96691 81.0301 -4.86565 -4.34577 95.5403 29.9163 -31.46 7.15625e-015 0 -0 14.8641 68.2425 -11.7597 -7.24351e-006 8.91949e-007 -2.99998 8.03005 -4.95103 0.697575 -41.3173 -8.41148 4.76981 -137.084 19.5712 32.4532 4.62981e-006 -1.12374e-006 3.00556e-006 -13.1899 55.8909 10.8187 -1.26957e-006 -9.87567e-007 3 -8.0289 -4.95145 -0.697699 171.625 81.1949 18.9821 180 7.01396e-015 178.395 -7.34073 77.9698 6.75657 2.80017e-006 -3.04261e-006 2.18667 -31.7085 78.3601 35.1703 8.13649 25.2327 -3.48774 154.664 87.0355 30.9255 4.54188e-006 -4.6773e-006 -1.31197 131.313 -79.2483 124.84 1.74305e-006 1.7099e-006 -1.91196 15.8581 68.2372 -19.6969 -8.13647 25.2327 3.4839 
